<?xml version="1.0" encoding="UTF-8"?>
<svg id="Layer_1" data-name="Layer 1" xmlns="http://www.w3.org/2000/svg" viewBox="0 0 248.52 248.47">
  <defs>
    <style>
      .cls-1 {
        fill: #06f;
        stroke-width: 0px;
      }
    </style>
  </defs>
  <path class="cls-1" d="M36.47,188.9c6.75,21.03,22.74,33.6,41.42,36.06,6.51.41,12.94.62,19.41-.61-8.54-23-28.19-40.48-48.14-47.98l11.38-9.48c0,3.28,1.9,6.43,3.61,8.88,8.31,11.91,25.79,24.15,39.12,23.55,1.62-.07,7.75-.7,7.26-3.09-1.6-7.83-11.15-20.02-16.33-25.36-5.6-5.76-12.97-11.58-20.2-13.75l7.24-5.5c2.02,6.4,8.04,11.97,12.79,15.78,8.96,7.19,19.75,11.76,30.71,11.12-.55-7.99-6.21-16.16-10.88-21.7-4.67-5.54-11.37-11.86-17.6-14.38l5.44-4.26c5.32,9.15,14.3,17.49,23.04,21.68,1.57.75,7.78,3.37,9.05,3.37h7.51c-5.28-13.65-14.02-28.14-26.92-32.09l6.72-3.37c.44,3.95,3.96,7.85,6.49,10.38,7.44,7.45,19.42,13.44,29.24,11.02-3.43-13.43-13.29-25.76-25.37-27.51l6.48-4.2c8.04,11.55,21.19,18.61,33.89,18.87-2.99-10.81-9.57-20.95-19.13-24.17-1.29-.43-3.55.45-3.13-1.49l5.88-2.98c6.62,10.84,17.38,15.58,28.56,14.61.79-.07,4.14-.26,3.84-1.52-1.49-6.28-9.78-13.8-14.8-16.15l-7.95-3.14,7.47-3.71c5.75,12.53,18.65,12.76,29.28,11.04-1.92-7.22-7.36-13.04-13.11-16l-5.53-2.33,5.36-2.97c6.46,8.01,16.14,10.64,25.18,8.46-1.59-6.29-7.4-10.66-12.54-12.39l-6.09-1.65,5.96-4.14c5.89,8.32,15.39,7.37,23.55,5.35-2.58-8.05-10.35-10.69-17.08-10.69l5.91-5.24c4.94,7.62,13.08,8.01,19.97,3.7-2.36-4.94-7.31-9.43-12.23-9.72-.97-.06-2.05.99-2.78.25l3.95-3.92c5.36,4.4,13.38,4.32,18.3-.98-3.28-4.66-8.58-5.77-13.45-6.11l2.4-2.66c5.59,3.62,10.09,2.75,15.19-1.33.84-1.42-3.67-3.34-4.52-3.51-2.55-.51-5.37-.12-7.91.15,2.02-5.56,2.39-3.16,5.48-2.8,2.4.28,5.01.2,7.13-1.26,7.01-4.83-4.7-6.56-7.94-4.8l1-2.76c13.62,2.06,10.93-15.18,8.45-25.22l-2.2-6.25c-10.71,20.34-26.21,38.67-44.7,49.01-30.64,17.14-66.98,13.59-100,17.01-25.64,2.65-51.3,9.43-74.48,22.7-2.56,1.46-11.47,6.6-13.04,8.44-1.7,2-4.42,16.55-4.82,19.98-2.57,22.24,1.08,45.61,10.54,65.01l3.74-3.95c-9.54-22.29-15.1-55-.4-75.79.66-.29,2.62.56,3.34.95,12.01,6.56,14.82,47.21,12.6,60.61-.07.48-.89,1.6.39,1.07,3.03-1.27,6.64-6.5,10.1-7.34-7.63-18.27-10.48-48.03-.42-65.6.84-1.48,3.97-6.21,5.09-6.87,1.81-1.07,6.15,5.18,7.14,6.87,8.69,14.84,6.55,37.11,4.49,53.99l12.1-7.7c-6.2-17.18-9.9-40.25.59-56.17.84-1.27,3.6-4.9,4.67-5.55,1.78-1.08,4.74,4.19,5.44,5.82,4.82,11.18,4.83,33.01,2.39,45.05-.2.96-1.96,4.44-.35,3.87l10.1-5.5-2.62-5.15c-3.04-15.56-1.76-35.76,7.55-48.02l2.82,3.36c5.36,8.02,6.86,19.3,6.21,29.33-.32,4.89-1.88,9.55-2.33,14.37l9.06-4.28c-5.6-14.27-6.07-32.45,3.62-44.35,7.53,5.1,6.62,20.86,6.23,30.02-.12,2.69-.9,5.86-1.07,8.53-.06.96-.08,1.05.77.91l5.92-3.11c-2.68-10.64-3.31-25.75,2.72-34.99,2.41-3.7,3.42-3.75,5.83.24,4.42,7.32,3.78,20.99,1.85,29.3l5.66-2.83c-2.08-11.05-1.44-23.87,5.99-31.99,6.91,6.91,5.1,18.15,4.14,27.49l6.46-3.97c-3.78-3.51.51-23.73,3.11-25.71,2.51-.89,4.51,4.32,5.29,6.65,1.45,4.35,2.16,9.35.94,13.86.8.71,4.88-2.35,5.63-3.34-2.4-6.46-1.69-15.77,2.13-21.44,2.88-1.82,4.88,7.53,5.12,9.89.2,2.01-.15,4.17.06,6.05.09.84-.28,1.07.76.89l4.94-3.05c-2.04-5.27-3.1-9.27-.97-14.89,1.37-3.61,3.34-6.86,6.07-2.43,2.12,3.44,2.07,7.83,2.41,11.83l6.99-5.51c.24-1.84-1.47-.97-2.6-2.73-2.1-3.28-.86-9.1.59-12.47,2.84-.35,4.87,2.62,5.88,5.43.41,1.14.6,4.74,1.55,4.26l4.4-5.21v-.89c-3.36-1.23-4.11-5.06-3.59-8.84,1.03-7.5,7.84.54,7.99,4.55l3.37-4.59c-3.06-2.18-3.75-7.49-2.57-11.29,2.94.04,4.85,3.35,5.93,6.09l2.78-4.69c.15-1.16-3.36-3.19-3.03-7.17.46-5.59,6.05-1.39,5.68,2.94-.25,2.78-6.03,12.12-7.78,14.71-16.37,24.18-43.8,40.8-67.1,54.03-44.41,25.22-91.05,44.54-130.36,80.81-5.93,5.47-24.74,24.7-31.24,36.01v33.95h.58c7.53-22.88,19.74-44.11,35.89-59.57Z"/>
</svg>