<?xml version="1.0" encoding="UTF-8"?>
<svg id="Layer_1" data-name="Layer 1" xmlns="http://www.w3.org/2000/svg" viewBox="0 0 1024 1024">
  <defs>
    <style>
      .cls-1 {
        fill: #fff;
      }
    </style>
  </defs>
  <path class="cls-1" d="M859.49,639.97c-22.62,2.75-15.35,14.91-16.44,31.96-3.62,56.33-2.78,114.73.09,171.09,1.18,23.13-.89,52.2,14.72,71.72,2.48,3.11,7.76,4.27,7.79,7.85-23.19,30.23-68.41,42.79-103.83,53.61-175.8,53.7-392.47,76.03-549.6-38.18C25.44,802.28.68,498.3,127.67,314.42,246.54,142.31,446.04,97.38,643.4,81.59c83-6.64,209.81,7.77,279.72-34.92,19.77-12.08,34.87-27.87,52.18-42.9-16.36,77.34-34.65,155.69-59.59,230.84-32.23,97.1-81.27,172.52-176.3,217.86-123.67,59-258.42,13.61-389.98,19.74-151.15,7.05-155.08,121.32-118.81,239.97,36.31,118.77,116.23,217.28,242.16,243.62,70.54,14.76,149.56,8.05,214.41-23.94-.94-64.64,2.21-129.66.37-194.29-.57-20.18-.93-68.95-9.77-85.31-3.2-5.92-12.31-12.28-18.83-12.28h-93.35l-2.59-2.59v-36.3l2.59-2.59h358.72v41.49c-20.46,1.8-44.87-2.43-64.83,0ZM682.3,209.49c57.13,5.5,136.18,33.96,184.99-7.74,25.68-21.94,41.58-64.15,50.1-95.97-27.73,33.07-61.89,55.06-102.38,69.62-41.98,15.1-84.69,20.82-127.52,31.54-1.95.49-5.62-.09-5.18,2.54ZM858.6,254.46c-69.57,32.03-147.47-1.64-218.89-10.16-62.41-7.44-100.08-.88-154.55,30-5.24,2.97-12.36,6.3-15.52,11.26,74.3,1.08,142.98,33.97,215.48,44.72,33.12,4.91,81.75,10.24,113.44-.17,32.8-10.77,51.85-43.96,60.04-75.65ZM761.8,378.93c-26.64,3.28-56.74,1.2-83.62-1.95-94.37-11.05-243.95-83.82-323.44-18.75-6.31,5.16-44.77,47.93-38.94,53.53,80.51,2.09,160.92,6.76,241.09,13.91,62.92,2.39,151.2-2.37,202.74-42.79,1.4-1.1,3.19.04,2.18-3.95Z"/>
</svg>