<?xml version="1.0" encoding="UTF-8"?>
<svg id="Layer_1" data-name="Layer 1" xmlns="http://www.w3.org/2000/svg" viewBox="0 0 1024 1024">
  <defs>
    <style>
      .cls-1 {
        fill: #fff;
      }
    </style>
  </defs>
  <path class="cls-1" d="M241.14,658.32c3.94.78,3.58.52,5.81-1.81,3.78-3.94,30.43-38.63,30.21-41.18-22.15-56.26-54.91-114.07-72.58-171.66-6.35-20.71-18.58-56.12,17.55-54.12,41.32,2.29,87.71,79.47,106.45,112.53,3.47,6.13,20.46,43.92,23.37,43.93l34.87-32.05c-11.19-57.07-39.99-120.6-46.79-177.68-3.29-27.62-1.84-54.19,34.09-39.7,40.78,16.45,70.22,119.36,82.46,158.95l4.78,3.52,40.89-32.49c-10.66-42.83-25.98-89.14-33.01-132.47-1.92-11.84-8.21-42.6.51-51.16,3.78-3.7,9.23-3.24,14.09-2.89,42.19,3.11,71.09,103.49,81.39,137.64l40.85-35.12c-5.7-37.47-21.6-75.88-27.43-112.95-1.09-6.96-4.29-28.69,1.86-33.08,16.24-5.02,25.24,1.29,34.99,13.04,21.85,26.33,29.05,64.36,42.35,95.11l37.99-29.66c-4-18.49-29.94-101.15-21.32-113.57,1.94-2.8,5.45-2.85,8.53-2.85,28.31,0,44.21,63.59,53.36,84.38l34.8-29.94c1.01-15.71-24.96-75.35-15.24-85.12,2.83-2.84,4.01-3,7.89-2.42,16.37,2.43,31.97,42.21,35.53,56.91l5.73,1.63c1.72-11.34,22.83-22.13,24.54-32.67,1.61-9.92-20.49-55.38-13.25-62.72,21.77-2.52,26.56,22.16,35.05,36.47l23.4-32.86-7.93-42.88c4.26-.73,6.56.33,9.97,2.63,8.21,5.52,6.56,18.09,15.23,16.99,10.74-17.62,20-50.34,31.3-65.55,9.36-12.6,8.58,12.95,7.99,19.24-8.38,90.31-151.86,231.2-220.32,287.59-149.95,123.51-332.87,230.97-448.15,390.92-55.42,76.9-109.7,181.55-150.52,267.61-3.64,7.67-20.33,51.44-22.7,53.09-17.47,12.14-27.87-31.51-27.91-42.57-.07-19.79,58.69-126.79,72.17-151.71,14.98-27.68,32.14-53.97,47.56-81.36-22.88-62.85-58.86-126.05-78.71-189.59-9.44-30.2-18.87-66.41,28.91-54.16,42.05,10.78,97.07,115.36,109.39,155.83Z"/>
  <path class="cls-1" d="M232.71,798.61l52.14-83.91,8.51-8.01c51,6.28,111.42,11.34,157.86,34.77,28.77,14.52,66.15,59.71,13,65.6-25.03,2.77-63.8.76-90.02,0-46.95-1.35-94.32-8.36-141.49-8.45Z"/>
  <path class="cls-1" d="M322.51,672.33c-2.26-1.82,14.65-21.53,16.75-23.91,8.57-9.73,54.33-56.57,63.31-57.39,10.53-.96,56.72,10.65,69.85,14.18,28.99,7.79,87.53,27.45,103.23,53.93,11.73,19.78,10.12,39.07-16.02,41.28-79.73-.98-157.95-20.37-237.11-28.08Z"/>
  <path class="cls-1" d="M440.37,557.25c-1.82-6.54,1.73-4.72,3.58-6.37,15.58-13.9,41.55-37.46,58.3-48.16,4.3-2.75,6.19-4.35,11.77-3.83,9.12.84,40.5,14.89,50.82,19.51,23.94,10.73,107.36,53.12,86.15,88.18-8,10.66-22.76,6.79-34.51,6.11l-176.11-55.44Z"/>
  <path class="cls-1" d="M728.71,534.16c-8.36,7.29-32.96-1.81-42.84-4.89-47.78-14.89-92.72-39.7-140.03-55.99l-1.62-5.73,61.79-46.46c7.99-3.41,55.31,23.95,65.28,30.15,21.71,13.49,64.23,41.05,62.21,69.96-.16,2.33-3.32,11.67-4.79,12.96Z"/>
  <path class="cls-1" d="M642.41,397.3l57-44.44c27.61,11.74,101.49,47.74,105.67,79.81,2.68,20.59-12.4,19.63-28.13,16.7l-134.54-52.07Z"/>
  <path class="cls-1" d="M776.08,288.44c25.78,7.12,101.4,36.43,99.5,68.21-.81,13.45-9.59,13.25-20.55,11.94-38.16-4.57-84.65-28.17-122.84-37.19-4.69-3.31-1.26-4.16,1.36-7.1,10.79-12.13,31.01-23.33,42.54-35.86Z"/>
  <path class="cls-1" d="M807.99,259.81c-.72-8.5,9.3-10.33,14-15.43,8.13-8.82,14.69-24.95,29.13-23.79,16.05,1.3,69.84,22.85,78.81,36.53,4.69,7.14,7.77,19.27-1.28,23.77-15.59,7.76-98.25-20.64-120.66-21.08Z"/>
  <path class="cls-1" d="M869.71,189.64l24.14-30.22c13.35.4,68.57,13.11,65.25,31.26-.38,2.05-3.29,5.07-5.22,5.97-14.12,6.61-65.68-8.36-84.16-7.01Z"/>
  <path class="cls-1" d="M909,133.55c7.34-8.61,11.31-24.82,23.82-25.51,8.34-.45,49.51,6.82,39.45,20.03-.74.97-15.72,5.48-16.97,5.48h-46.3Z"/>
</svg>