<?xml version="1.0" encoding="UTF-8"?>
<svg id="Layer_1" data-name="Layer 1" xmlns="http://www.w3.org/2000/svg" viewBox="0 0 1024 1024">
  <defs>
    <style>
      .cls-1 {
        fill: #fff;
      }

      .cls-1, .cls-2 {
        stroke: #fff;
        stroke-miterlimit: 10;
      }

      .cls-2 {
        fill: none;
        stroke-linecap: round;
        stroke-width: 68px;
      }
    </style>
  </defs>
  <path class="cls-1" d="M977.66,139.7l-163.33-120.33c-41.9-30.87-100.88-21.93-131.75,19.97l-180.55,245.07c-30.87,41.9-21.93,100.88,19.97,131.75l36.36,26.79c6.85,5.04,16.48,3.58,21.53-3.26l144.44-196.05c13.39-18.17,38.98-22.05,57.15-8.66h0c18.17,13.39,22.05,38.98,8.66,57.15l-144.44,196.05c-5.04,6.85-3.58,16.48,3.26,21.53l36.36,26.79c41.9,30.87,100.88,21.93,131.75-19.97l180.55-245.07c30.87-41.9,21.93-100.88-19.97-131.75Z"/>
  <path class="cls-1" d="M154.25,87.28l-121.31,115.83c-31.12,29.71-32.26,79.03-2.55,110.14l173.8,182.02c29.71,31.12,79.03,32.26,110.14,2.55l27.01-25.79c5.08-4.85,5.27-12.91.42-18l-139.04-145.61c-12.89-13.5-12.39-34.89,1.1-47.78h0c13.5-12.89,34.89-12.39,47.78,1.1l139.04,145.61c4.85,5.08,12.91,5.27,18,.42l27.01-25.79c31.12-29.71,32.26-79.03,2.55-110.14l-173.8-182.02c-29.71-31.12-79.03-32.26-110.14-2.55Z"/>
  <path class="cls-2" d="M569.61,531.16c-45.97,92.43-101.52,238.19-83.37,455.93"/>
  <path class="cls-2" d="M413.5,482.91c19.14,17.68,82.11,85.61,84.98,254.55"/>
</svg>