<?xml version="1.0" encoding="UTF-8"?>
<svg id="Layer_1" data-name="Layer 1" xmlns="http://www.w3.org/2000/svg" viewBox="0 0 1024 1024">
  <defs>
    <style>
      .cls-1 {
        fill: #fff;
      }
    </style>
  </defs>
  <path class="cls-1" d="M833.49.69h-457.15c-95.74,0-173.35,2.06-173.35,91.63v806.32c0,69.24,60,125.36,134.01,125.36h535.83c74.01,0,134.01-56.13,134.01-125.36V92.32C1006.84,2.76,929.23.69,833.49.69ZM369.75,75c0-18.32,14.85-33.17,33.17-33.17h403.98c18.32,0,33.17,14.85,33.17,33.17v42.41c0,18.32-14.85,33.17-33.17,33.17h-403.98c-18.32,0-33.17-14.85-33.17-33.17v-42.41ZM469.29,920.91c0,18.32-14.85,33.17-33.17,33.17h-107.03c-18.32,0-33.17-14.85-33.17-33.17v-16.35c0-18.32,14.85-33.17,33.17-33.17h107.03c18.32,0,33.17,14.85,33.17,33.17v16.35ZM921.33,920.91c0,18.32-14.85,33.17-33.17,33.17h-107.03c-18.32,0-33.17-14.85-33.17-33.17v-16.35c0-18.32,14.85-33.17,33.17-33.17h107.03c18.32,0,33.17,14.85,33.17,33.17v16.35ZM946.07,788.19c0,26.3-21.32,47.62-47.62,47.62H311.38c-26.3,0-47.62-21.32-47.62-47.62V233.1c0-26.3,21.32-47.62,47.62-47.62h587.08c26.3,0,47.62,21.32,47.62,47.62v555.1Z"/>
</svg>