<?xml version="1.0" encoding="UTF-8"?>
<svg id="Layer_1" data-name="Layer 1" xmlns="http://www.w3.org/2000/svg" viewBox="0 0 753.97 248.64">
  <defs>
    <style>
      .cls-1 {
        fill: #fff;
      }
    </style>
  </defs>
  <g>
    <path class="cls-1" d="M269.92,248.64V0h226.06v53.99h-165.23v50.79h146.45v53.99h-146.45v89.86h-60.83Z"/>
    <path class="cls-1" d="M528.28,248.64V0h225.69v53.99h-164.85v39.78h146.08v53.99h-146.08v46.89h164.85v53.99h-225.69Z"/>
  </g>
  <g>
    <path class="cls-1" d="M31.24,178.7c39.31-36.27,85.95-55.59,130.36-80.81,23.3-13.23,50.73-29.85,67.1-54.03,1.75-2.59,7.53-11.93,7.78-14.71.37-4.33-5.22-8.53-5.68-2.94-.33,3.98,3.18,6.01,3.03,7.17l-2.78,4.69c-1.08-2.74-2.99-6.05-5.93-6.09-1.18,3.8-.49,9.11,2.57,11.29l-3.37,4.59c-.15-4.01-6.96-12.05-7.99-4.55-.52,3.78.23,7.61,3.59,8.84v.89s-4.4,5.21-4.4,5.21c-.95.48-1.14-3.12-1.55-4.26-1.01-2.81-3.04-5.78-5.88-5.43-1.45,3.37-2.69,9.19-.59,12.47,1.13,1.76,2.84.89,2.6,2.73l-6.99,5.51c-.34-4-.29-8.39-2.41-11.83-2.73-4.43-4.7-1.18-6.07,2.43-2.13,5.62-1.07,9.62.97,14.89l-4.94,3.05c-1.04.18-.67-.05-.76-.89-.21-1.88.14-4.04-.06-6.05-.24-2.36-2.24-11.71-5.12-9.89-3.82,5.67-4.53,14.98-2.13,21.44-.75.99-4.83,4.05-5.63,3.34,1.22-4.51.51-9.51-.94-13.86-.78-2.33-2.78-7.54-5.29-6.65-2.6,1.98-6.89,22.2-3.11,25.71l-6.46,3.97c.96-9.34,2.77-20.58-4.14-27.49-7.43,8.12-8.07,20.94-5.99,31.99l-5.66,2.83c1.93-8.31,2.57-21.98-1.85-29.3-2.41-3.99-3.42-3.94-5.83-.24-6.03,9.24-5.4,24.35-2.72,34.99l-5.92,3.11c-.85.14-.83.05-.77-.91.17-2.67.95-5.84,1.07-8.53.39-9.16,1.3-24.92-6.23-30.02-9.69,11.9-9.22,30.08-3.62,44.35l-9.06,4.28c.45-4.82,2.01-9.48,2.33-14.37.65-10.03-.85-21.31-6.21-29.33l-2.82-3.36c-9.31,12.26-10.59,32.46-7.55,48.02l2.62,5.15-10.1,5.5c-1.61.57.15-2.91.35-3.87,2.44-12.04,2.43-33.87-2.39-45.05-.7-1.63-3.66-6.9-5.44-5.82-1.07.65-3.83,4.28-4.67,5.55-10.49,15.92-6.79,38.99-.59,56.17l-12.1,7.7c2.06-16.88,4.2-39.15-4.49-53.99-.99-1.69-5.33-7.94-7.14-6.87-1.12.66-4.25,5.39-5.09,6.87-10.06,17.57-7.21,47.33.42,65.6-3.46.84-7.07,6.07-10.1,7.34-1.28.53-.46-.59-.39-1.07,2.22-13.4-.59-54.05-12.6-60.61-.72-.39-2.68-1.24-3.34-.95-14.7,20.79-9.14,53.5.4,75.79l-3.74,3.95c-9.46-19.4-13.11-42.77-10.54-65.01.4-3.43,3.12-17.98,4.82-19.98,1.57-1.84,10.48-6.98,13.04-8.44,23.18-13.27,48.84-20.05,74.48-22.7,33.02-3.42,69.36.13,100-17.01,16.96-9.49,34.94-30.13,46.07-49.18H0v214.71c6.5-11.31,25.31-30.54,31.24-36.01Z"/>
    <path class="cls-1" d="M238,31.64l-1,2.76c3.24-1.76,14.95-.03,7.94,4.8-2.12,1.46-4.73,1.54-7.13,1.26-3.09-.36-3.46-2.76-5.48,2.8,2.54-.27,5.36-.66,7.91-.15.85.17,5.36,2.09,4.52,3.51-5.1,4.08-9.6,4.95-15.19,1.33l-2.4,2.66c4.87.34,10.17,1.45,13.45,6.11-4.92,5.3-12.94,5.38-18.3.98l-3.95,3.92c.73.74,1.81-.31,2.78-.25,4.92.29,9.87,4.78,12.23,9.72-6.89,4.31-15.03,3.92-19.97-3.7l-5.91,5.24c6.73,0,14.5,2.64,17.08,10.69-8.16,2.02-17.66,2.97-23.55-5.35l-5.96,4.14,6.09,1.65c5.14,1.73,10.95,6.1,12.54,12.39-9.04,2.18-18.72-.45-25.18-8.46l-5.36,2.97,5.53,2.33c5.75,2.96,11.19,8.78,13.11,16-10.63,1.72-23.53,1.49-29.28-11.04l-7.47,3.71,7.95,3.14c5.02,2.35,13.31,9.87,14.8,16.15.3,1.26-3.05,1.45-3.84,1.52-11.18.97-21.94-3.77-28.56-14.61l-5.88,2.98c-.42,1.94,1.84,1.06,3.13,1.49,9.56,3.22,16.14,13.36,19.13,24.17-12.7-.26-25.85-7.32-33.89-18.87l-6.48,4.2c12.08,1.75,21.94,14.08,25.37,27.51-9.82,2.42-21.8-3.57-29.24-11.02-2.53-2.53-6.05-6.43-6.49-10.38l-6.72,3.37c12.9,3.95,21.64,18.44,26.92,32.09h-7.51c-1.27,0-7.48-2.62-9.05-3.37-8.74-4.19-17.72-12.53-23.04-21.68l-5.44,4.26c6.23,2.52,12.93,8.84,17.6,14.38,4.67,5.54,10.33,13.71,10.88,21.7-10.96.64-21.75-3.93-30.71-11.12-4.75-3.81-10.77-9.38-12.79-15.78l-7.24,5.5c7.23,2.17,14.6,7.99,20.2,13.75,5.18,5.34,14.73,17.53,16.33,25.36.49,2.39-5.64,3.02-7.26,3.09-13.33.6-30.81-11.64-39.12-23.55-1.71-2.45-3.61-5.6-3.61-8.88l-11.38,9.48c19.95,7.5,39.6,24.98,48.14,47.98-6.47,1.23-12.9,1.02-19.41.61-18.68-2.46-34.67-15.03-41.42-36.06-16.15,15.46-28.36,36.69-35.89,59.57h248.13V26.27c-2.15,3.78-5.56,6.13-10.63,5.36Z"/>
  </g>
</svg>