<?xml version="1.0" encoding="UTF-8"?>
<svg id="Layer_1" data-name="Layer 1" xmlns="http://www.w3.org/2000/svg" viewBox="0 0 1024 1024">
  <defs>
    <style>
      .cls-1 {
        fill: #fff;
        stroke-width: 0px;
      }
    </style>
  </defs>
  <path class="cls-1" d="M370.28,435.49c-11.29,6.48-22.32,13.53-32.5,21.79-44.73,36.32-73.22,82.43-81.95,139.64-8.67,56.81,4.76,109.02,36.18,156.74,27.37,41.57,61.82,75.57,106.97,97.71,31.18,15.29,64.21,23.07,98.93,23.87,51.37,1.18,101.03-6.86,148.09-28.06,55.89-25.19,98.13-65.67,129.95-117.55,23.64-38.55,41.08-79.6,48.17-124.48,9.69-61.3,2.47-120.78-21.65-177.98-24.94-59.15-59.17-112.22-105.15-157.34-55.49-54.46-121.08-91.49-195.58-113.04-48.63-14.07-98.27-23-148.51-28.91-41.87-4.92-83.85-7.79-126.01-8.11-6.96-.05-13.92-.28-20.88-.33-1.92-.01-3.91,0-4.64-2.03-.97-2.7,1.95-2.51,3.16-3.49,10.22-8.32,20.32-16.81,30.81-24.76,57.67-43.7,122.27-71.15,193.8-82.29,45.84-7.14,91.87-9.07,138.01-4.03,106.6,11.65,198.01,54.65,272.04,133.03,53.65,56.8,94.05,121.62,118.44,196.11,15.36,46.91,23.41,95.11,26.13,144.33,1.97,35.75,1.45,71.42-2.48,107-7.22,65.39-25.77,127.4-56.11,185.83-22.12,42.62-48.57,82.21-81.68,117.16-57.91,61.13-126.97,103.52-208.98,124.01-35.14,8.78-70.87,12.81-107.1,13.55-45.98.93-91.51-2.16-136.23-13.38-74.53-18.71-139.77-54.58-195.03-107.96-60.28-58.22-104.24-126.95-130.42-206.77-15.44-47.06-23.41-95.48-26.14-144.86-2.33-42.19-.96-84.22,4.45-126.12,1.27-9.82,1.19-10.02,11.04-11,66.1-6.63,132.28-9.46,198.55-2.76,38.69,3.91,76.73,11.25,113.91,22.84.85.26,1.85.2,2.42,1.68Z"/>
  <path class="cls-1" d="M502.67,643.62c7.53,3.47,14.42,3.42,21.21,1.97,28.11-6.01,50.83-30.67,56.33-60.31,4.89-26.38-1.64-50.98-11.86-74.75-18.54-43.09-49.9-75.47-87.98-101.72-38.23-26.35-81.13-41.96-125.9-52.81-40.83-9.89-82.27-15.63-124.22-18.07-26.17-1.52-52.35-2.41-78.54-1.55-26.53.87-53.06,1.93-79.47,4.81-3.65.4-3.94-.62-2.87-3.85,15.98-48.45,35.1-95.52,60.75-139.76,1.89-3.26,3.86-4.94,8.02-5.14,35.15-1.74,70.33-2.7,105.49-1.46,78.29,2.76,155.82,11.36,231.76,31.62,64.28,17.16,120.63,48.64,169.47,93.64,56.88,52.41,91.98,117.05,106.43,192.81,10.93,57.31,6.37,113.14-22.83,164.6-36.05,63.52-88.06,109.19-160.04,126.49-71.15,17.1-135.71.03-190.25-49.2-27.29-24.64-41.56-57.26-50.2-92.82-19.22-79.08,38.6-157.3,109.02-172.97,40.64-9.05,77.39-1.61,106.39,30.43,18.47,20.41,27.3,44.25,20.51,71.9-6.82,27.76-25.62,44.37-52.04,53.25-2.71.91-5.45,1.72-9.16,2.88Z"/>
</svg>