<?xml version="1.0" encoding="UTF-8"?>
<svg id="Layer_1" data-name="Layer 1" xmlns="http://www.w3.org/2000/svg" viewBox="0 0 1024 1024">
  <defs>
    <style>
      .cls-1 {
        fill: #fff;
      }
    </style>
  </defs>
  <path class="cls-1" d="M263.43,295.74l115.45,226.07,19.27-222.94,97.8-3.13-33.86,360.6-60.97,28.18-30.38.48-129.9-255.23-24.32,253.41-93.58,1.71c10.1-117.2,23.4-234.11,35.48-351.12l-20.94-38.02h125.94Z"/>
  <path class="cls-1" d="M543.58,471.74c-.39-.03-2.78-3.48-4.03-.82l40.18,34.23-15.95,48.92,29.03-20.98-4.97,46.01c1.31,10.48,4.61,19.5,13.83,25.07,6.65,4.02,15.36,4.34,21.05,8.02,7.85,5.08,22.38,19.67,29.82,26.76,1.34,1.28,3.04,1.92,4.73,2.55l-14.32,42.63c-42.25,1.68-89.1,5.71-120.37-28.31-20.5-22.29-24.75-45.48-23.38-75.08,2.29-49.69,9.75-111.52,16.33-161.28,10.91-82.55,77.48-125.05,157.3-123.79,33.05.52,74.64-1.1,106.56,1.62,35.21,3.01,64.75,28.76,82.82,57.39-.01,1.89-26.07,24.6-28.02,24.98l-116.09.13-13.83-53.36-16.33,53.11-50.67-1.4c-33.75,17.82-32.89,62.22-47.66,93.61-15.01-.84-31.15,1.14-46.02,0Z"/>
  <path class="cls-1" d="M101.97,596.08c-22.08,30.05-50.32,61.67-63.75,96.89-29.84,78.28,59.52,84.41,112.98,79.08,16.41-1.64,34.34-5.54,49.62-8.51,106.91-20.75,209.14-63.43,307.27-109.16,7.88,11.83,19.6,19.46,29.83,28.85-87.95,42.27-178.99,79.55-274.12,102.92-57.21,14.05-189.68,37.83-240.46,5.6-36.06-22.89-24.04-67.46-5.93-98.6,20.35-34.99,50.81-65.15,78.9-93.87l5.66-3.21Z"/>
  <path class="cls-1" d="M867.32,466.9l-14.98,126.31c-12.43,57.3-69.84,98.32-128.52,91.46l-11.28-42.22,35.28-29.43c-.63-1.72-3.87-.57-5.58-.78-5.56-.68,2.7-4.42,3.12-4.82,10.99-10.52,13.58-20.68,16.48-35.27,1.98-9.95,5.3-28.59,5.42-38.22.07-5.89-9.83.57-11.35-4.03l26.61-17.46,42.79,30.36-12.19-50.1c17.91-9.54,31.72-30.12,54.19-25.78Z"/>
  <path class="cls-1" d="M838.25,458.82c42.38-42.05,91.85-86.84,121.38-139.39,106.36-189.34-208.71-92.02-284.08-69.33-9.49,2.86-19.55,7.33-28.82,9.96-3.03.86-2.35-.78-2.24-3.05,35.43-10.99,69.86-25.04,105.33-35.97,60.63-18.68,181.52-51.07,240.15-26.16,71.63,30.44,12.49,125.3-17.07,166.89-27.89,39.25-61.3,74.26-95.1,108.35-2.08-3.23-.6-8.05.82-11.29h-40.37Z"/>
  <path class="cls-1" d="M697.78,533.09l8.38-61.85c.81-2.25,3.31-3.62,5.54-3.87,14.02-1.53,33.96,17.46,45.66,24.8.64,2.18-12.81,37.31-15.13,39.38-.61.55-4.06,1.53-4.88,1.53h-39.56Z"/>
  <path class="cls-1" d="M766.4,466.89c.98-.15,5.17-1.88,5.77-2.69,3.06-4.09,10.2-35.48,12.01-36.08,3.49-1.14,2.04,2.14,2.58,3.8,3.74,11.62,6.67,24.19,11.94,34.96h39.56l-33.53,23.35,9.3,36.39-31.46-22.08-29.88,20.45,12.7-34.4-33.69-23.72c10.77-1.13,24.35,1.54,34.72,0ZM810.79,476.6c-4.69-.89-15.97,1.54-19.43-.76-3.86-2.56-2.48-17.76-7.99-20.25l-5.02,20.83c-7.2.16-14.75,1.16-21.62-1.47-3.43,3.67,3.49,4.11,6.72,6.19,14.95,9.66,8,8.07,5.38,24.51.54.71,12.27-9.66,15.06-9.42,4.56.39,13.01,11.14,18.01,12.66l-7.05-21.65,15.94-10.64Z"/>
  <path class="cls-1" d="M696.16,615.44h35.52l-28.74,25.25,10.96,36.11-30.07-24.11-28.02,20.88c-1.87-2.4,10.36-29.28,9.46-32.76-1.13-4.42-23.46-19.92-27.24-25.37h35.52l12.11-40.38,10.5,40.38ZM686.47,605.75c-4.19-.46-2.57,0-3.26,2.37-1.55,5.26-2.6,11.47-3.26,16.94l-20.92.09c1.23,4.03,15.91,8.43,16.27,10.72.56,3.59-6.2,15.18-4.95,16.71,3.94-.66,12.07-10.03,15.08-9.5,2.09.37,12.01,11.44,13.96,9.49-1.25-4.23-5.8-12.55-4.95-16.64.25-1.21,13.6-8.38,16.24-9.2.44-2.65-2.18-1.5-4-1.59-3.15-.16-15.93.62-16.83-.16-.74-.64-3.78-16.5-3.39-19.22Z"/>
  <path class="cls-1" d="M596.05,478.2c1.07-4.68,10.27-36.54,12.13-37.15,3.5-1.14,2.04,2.14,2.58,3.81,3.56,10.97,6.08,22.34,9.52,33.34h37.14l-30.76,23.56,11.37,36.19-31.77-22.39-29.55,20.78,12.4-33.15-28.56-24.98h35.52ZM612.2,486.27l-4.04-19.39-5.65,19.39h-22.61c1.39,3.7,17.61,10.55,17.89,12.35.57,3.69-6.68,16.1-4.95,18.33l15.09-11.17,15.56,11.17c1.1-1.34-6.48-14.25-6.06-17.02.33-2.17,15.65-10.25,17.38-13.66h-22.61Z"/>
  <path class="cls-1" d="M710.69,684.87h-54.9c7.42-8.93,18.28-14.6,26.88-22.42,2.49-.44,25.36,18.52,28.02,22.42Z"/>
  <path class="cls-1" d="M712.31,386.16h40.37l-28.52,24.99,10.75,39.59-33.1-25.42-32.29,23.77,11.84-39.33-27.16-23.61h38.75l10.5-32.31,8.88,32.31ZM704.22,376.47c-2.51-2.97-2.77.93-3.37,2.28-1.16,2.57-3.86,14.58-4.92,15.26-3.51,2.24-14.64-1.73-19.15-1.37,1.86,4.12,15.23,10.01,15.6,13.67.39,3.86-8.94,20.05-7.51,21.83l18.34-12.81,15.54,12.81c.91-5.43-6.3-16.19-5.89-20.22.37-3.67,13.73-9.56,15.6-13.67-3.31-1.33-18.66,1.45-19.47.91-3.24-2.17-4.05-17.84-4.76-18.69Z"/>
</svg>