<?xml version="1.0" encoding="UTF-8"?>
<svg id="Layer_1" data-name="Layer 1" xmlns="http://www.w3.org/2000/svg" viewBox="0 0 1024 1024">
  <defs>
    <style>
      .cls-1 {
        fill: #fff;
      }
    </style>
  </defs>
  <path class="cls-1" d="M956.3,327.91h-229.62c-16.89,0-30.59-13.7-30.59-30.59V67.7c0-37.39-30.31-67.7-67.7-67.7h-232.79c-37.39,0-67.7,30.31-67.7,67.7v229.62c0,16.89-13.7,30.59-30.59,30.59H67.7c-37.39,0-67.7,30.31-67.7,67.7v232.79c0,37.39,30.31,67.7,67.7,67.7h229.62c16.89,0,30.59,13.7,30.59,30.59v229.62c0,37.39,30.31,67.7,67.7,67.7h232.79c37.39,0,67.7-30.31,67.7-67.7v-229.62c0-16.89,13.7-30.59,30.59-30.59h229.62c37.39,0,67.7-30.31,67.7-67.7v-232.79c0-37.39-30.31-67.7-67.7-67.7Z"/>
</svg>