<?xml version="1.0" encoding="UTF-8"?>
<svg id="Layer_1" data-name="Layer 1" xmlns="http://www.w3.org/2000/svg" viewBox="0 0 1024 1024">
  <defs>
    <style>
      .cls-1 {
        fill: #fff;
        stroke-width: 0px;
      }
    </style>
  </defs>
  <path class="cls-1" d="M574.32,879.46c-74.13-16.02-100.76-106.7-104.53-172.47-7.55-131.62,29.39-211.82-64.72-326.58-32.84-40.05-97.36-85.31-115.21-131.96-2.29-5.98-4.75-11.19-3.8-17.92,9-.84,16.28,4.47,23.62,8.65,51.74,29.45,92.98,69.79,152.32,89.04,140.35,45.53,221.46-50.83,305.44-143.28,38.23-11.85,16.8,33.08,9.22,50.45-41.93,96.01-114.85,176.26-168.5,265.24-68.87,114.2-121.79,258.87-33.82,378.83h-.02Z"/>
  <path class="cls-1" d="M586.12,285.59c-33.86,33.02-98.29,26.41-126.63-10.69-53-69.37,25.86-175.51,108.61-130.19,51.47,28.19,59.68,100.27,18.03,140.88h-.01Z"/>
  <path class="cls-1" d="M392.16,14.11C.34,104.71-132.23,603.5,153.22,880.62h0c267.81,259.99,719.41,150.14,841.02-198.48C1127.67,299.65,792.18-78.38,392.16,14.11ZM886.5,703.03c0,8.51-6.9,15.41-15.41,15.41h-63.23v60.9c0,8.51-6.9,15.41-15.41,15.41h-47.4c-8.51,0-15.41-6.9-15.41-15.41v-60.9h-57.17c-8.51,0-15.41-6.9-15.41-15.41v-47.4c0-8.51,6.9-15.41,15.41-15.41h57.17v-59.49c0-8.51,6.9-15.41,15.41-15.41h47.4c8.51,0,15.41,6.9,15.41,15.41v59.49h63.23c8.51,0,15.41,6.9,15.41,15.41v47.4ZM959.25,670.27l-6.84,14.93v-34.1c0-62.75-66.12-131.47-123.72-150.4-207.38-68.15-337,221.47-160.64,334.61,65.85,42.25,116.67,26.16,183.95,4.95v.19c-6.76,12.66-29.89,33.45-42.74,43.14-82.47,62.22-213.59,43.52-302.56,3.88-169.14-75.35-311.39-248.64-312.57-437.85l17.75,66.11c35.8,99.1,88.77,204.94,179.65,264.54,2.08-34.92,15.98-67.11,23.36-100.87,26.2-119.82-1.96-213.32-94.45-293.81-23.4-20.36-50.77-36.43-74.13-56.87-18.38-16.08-37.44-41.49-56.32-55.9-1.56-1.19-2.47-3.35-4.99-2.88-49.93,57.55-84.84,133.81-93.23,209.64-16.29,147.21,51,254.73,184.49,313.46,22.35,9.83,56.25,17.88,75.64,28.5,24.99,13.7,59.81,49.05,86.81,67.06,63.31,42.22,137.57,73.96,214.97,75.64l-20.86,7.23c-268.65,71.32-543.98-100.45-588.76-372.36C-12.96,252.87,293.58-40.2,641.61,55.43c265.09,72.84,410.76,358.09,317.64,614.84Z"/>
</svg>